<svg xmlns="http://www.w3.org/2000/svg" width="35.873" height="35.42"><defs><filter id="a" x="0" y="0" width="35.873" height="35.42" filterUnits="userSpaceOnUse"><feOffset dy="3"/><feGaussianBlur stdDeviation="3" result="blur"/><feFlood flood-color="#fff" flood-opacity=".588"/><feComposite operator="in" in2="blur"/><feComposite in="SourceGraphic"/></filter></defs><g filter="url(#a)"><path data-name="arrow-right-solid" d="M19.274 7.167l-.886-.886a.953.953 0 00-1.352 0l-7.755 7.751a.953.953 0 000 1.352l7.755 7.755a.953.953 0 001.352 0l.886-.886a.958.958 0 00-.016-1.368l-4.807-4.579h11.464a.955.955 0 00.958-.956v-1.278a.955.955 0 00-.957-.957H14.451l4.807-4.579a.952.952 0 00.016-1.369z" fill="#404040"/></g></svg>
